<svg width="2072" height="601" viewBox="0 0 2072 601" fill="none" xmlns="http://www.w3.org/2000/svg">
<path d="M5.5814 5.5814H2066.42V595.419H5.5814V5.5814Z" fill="white" stroke="#9A9FAA" stroke-width="11.1628"/>
<path d="M464.939 195.371V101.948H502.976C523.262 101.948 536.742 114.093 536.742 133.044C536.742 151.862 523.262 164.007 502.976 164.007H484.959V195.371H464.939ZM501.108 118.63H484.959V147.325H501.108C510.45 147.325 516.456 141.853 516.456 133.044C516.456 124.102 510.45 118.63 501.108 118.63ZM546.494 195.371V101.948H565.312V195.371H546.494ZM643.823 179.489H645.958V195.371H636.349C626.606 195.371 623.536 190.7 623.67 184.16C618.865 191.768 611.925 196.172 601.248 196.172C586.434 196.172 575.757 189.098 575.757 176.019C575.757 161.472 586.701 153.197 607.254 153.197H620.867V149.86C620.867 143.721 616.463 139.717 608.588 139.717C601.248 139.717 596.31 143.054 595.509 148.125H577.358C578.693 134.779 590.971 125.971 609.122 125.971C628.341 125.971 639.418 134.512 639.418 150.928V175.218C639.418 178.822 640.886 179.489 643.823 179.489ZM620.867 167.077V165.742H607.12C599.246 165.742 594.708 168.946 594.708 174.684C594.708 179.489 598.579 182.559 604.852 182.559C614.728 182.559 620.734 176.419 620.867 167.077ZM658.176 175.752V142.654H646.832V126.772H658.176V107.553H676.994V126.772H692.743V142.654H676.994V172.683C676.994 177.487 678.863 179.489 683.801 179.489H693.143V195.371H677.795C664.716 195.371 658.176 188.831 658.176 175.752ZM711.328 119.431C705.189 119.431 700.384 114.893 700.384 108.888C700.384 102.748 705.189 98.2106 711.328 98.2106C717.468 98.2106 722.272 102.748 722.272 108.888C722.272 114.893 717.468 119.431 711.328 119.431ZM701.853 195.371V126.772H720.804V195.371H701.853ZM773.156 125.971C787.97 125.971 800.649 133.845 800.649 157.334V195.371H781.831V159.203C781.831 147.592 777.427 141.452 767.951 141.452C758.208 141.452 752.603 148.392 752.603 160.271V195.371H733.784V126.772H750.2L751.935 135.313C756.34 129.975 762.612 125.971 773.156 125.971ZM858.284 161.071V126.772H877.102V195.371H860.419L858.684 187.096C854.28 192.435 848.274 196.172 838.531 196.172C824.384 196.172 811.305 189.098 811.305 164.808V126.772H830.123V162.272C830.123 174.551 834.127 180.557 843.469 180.557C852.812 180.557 858.284 173.75 858.284 161.071ZM972.265 125.971C986.412 125.971 997.622 133.978 997.622 156V195.371H978.804V157.067C978.804 146.791 975.067 141.452 966.926 141.452C958.785 141.452 953.313 147.458 953.313 157.868V195.371H934.495V157.067C934.495 146.791 930.758 141.452 922.483 141.452C914.342 141.452 909.004 147.725 909.004 158.002V195.371H890.185V126.772H906.601L908.336 135.313C912.474 129.975 918.479 126.104 928.489 125.971C936.897 125.837 944.771 128.907 949.042 137.582C953.847 130.242 961.855 125.971 972.265 125.971ZM1038.68 119.164V101.948H1112.75V119.164H1085.65V195.371H1065.64V119.164H1038.68ZM1154.63 126.772H1157.83V143.855H1150.35C1139.14 143.855 1134.87 151.329 1134.87 161.739V195.371H1116.05V126.772H1133.14L1134.87 137.048C1138.61 130.909 1143.95 126.772 1154.63 126.772ZM1212.01 161.071V126.772H1230.83V195.371H1214.15L1212.41 187.096C1208.01 192.435 1202 196.172 1192.26 196.172C1178.11 196.172 1165.03 189.098 1165.03 164.808V126.772H1183.85V162.272C1183.85 174.551 1187.85 180.557 1197.2 180.557C1206.54 180.557 1212.01 173.75 1212.01 161.071ZM1240.71 172.549H1258.59C1259.26 178.555 1264.47 182.692 1273.67 182.692C1281.55 182.692 1286.35 180.156 1286.35 175.352C1286.35 169.746 1281.68 169.346 1270.6 167.878C1254.59 166.009 1242.18 162.406 1242.18 148.259C1242.18 134.646 1254.06 125.704 1271.67 125.837C1290.09 125.837 1302.77 133.978 1303.7 147.992H1285.69C1285.15 142.52 1279.95 139.184 1272.34 139.184C1265 139.184 1260.19 141.853 1260.19 146.257C1260.19 151.462 1266.07 151.996 1275.94 153.197C1291.69 154.799 1304.77 158.402 1304.77 173.884C1304.77 187.497 1291.96 196.172 1273.54 196.172C1254.46 196.172 1241.51 187.23 1240.71 172.549ZM1319.62 175.752V142.654H1308.28V126.772H1319.62V107.553H1338.44V126.772H1354.19V142.654H1338.44V172.683C1338.44 177.487 1340.31 179.489 1345.25 179.489H1354.59V195.371H1339.24C1326.16 195.371 1319.62 188.831 1319.62 175.752ZM1396.16 196.172C1373.33 196.172 1359.59 182.425 1359.59 161.205C1359.59 139.851 1373.6 125.971 1394.82 125.971C1415.37 125.971 1429.25 138.783 1429.52 158.936C1429.52 160.938 1429.39 163.207 1428.99 165.342H1379.21V166.276C1379.61 176.019 1385.88 181.891 1395.35 181.891C1402.96 181.891 1408.3 178.555 1409.9 172.149H1428.45C1426.32 185.495 1414.44 196.172 1396.16 196.172ZM1379.61 153.064H1410.57C1409.23 144.655 1403.5 139.984 1394.95 139.984C1386.81 139.984 1380.67 144.922 1379.61 153.064ZM1489.59 135.313V101.948H1508.4V195.371H1491.99L1490.12 185.895C1485.58 191.768 1478.91 196.172 1469.03 196.172C1450.62 196.172 1437.14 182.692 1437.14 160.938C1437.14 139.717 1450.62 125.971 1468.9 125.971C1478.38 125.971 1485.18 129.708 1489.59 135.313ZM1473.17 180.824C1483.45 180.824 1489.85 172.816 1489.85 161.205C1489.85 149.46 1483.45 141.319 1473.17 141.319C1462.89 141.319 1456.35 149.327 1456.35 161.071C1456.35 172.816 1462.89 180.824 1473.17 180.824ZM461.202 297.675L480.821 297.942C481.489 307.017 488.696 313.29 500.173 313.29C509.382 313.29 516.189 309.286 516.189 301.946C516.189 294.071 508.582 292.47 492.966 289.4C477.218 286.464 463.338 281.392 463.338 262.441C463.338 245.891 477.084 234.147 498.171 234.147C520.193 234.147 534.206 245.625 534.473 263.508H514.854C513.92 255.634 507.914 250.162 498.171 250.162C489.63 250.162 483.491 253.766 483.491 260.973C483.491 268.58 490.831 270.182 506.313 273.118C522.328 276.054 536.475 280.859 536.342 299.677C536.208 317.16 521.794 329.172 499.906 329.172C476.15 329.172 461.336 316.626 461.202 297.675ZM580.785 329.172C557.963 329.172 544.216 315.425 544.216 294.205C544.216 272.851 558.229 258.971 579.45 258.971C600.003 258.971 613.883 271.783 614.15 291.936C614.15 293.938 614.017 296.207 613.616 298.342H563.835V299.276C564.235 309.019 570.508 314.891 579.984 314.891C587.591 314.891 592.93 311.555 594.531 305.149H613.082C610.947 318.495 599.069 329.172 580.785 329.172ZM564.235 286.064H595.198C593.864 277.655 588.125 272.984 579.583 272.984C571.442 272.984 565.303 277.922 564.235 286.064ZM663.005 259.772H666.208V276.855H658.734C647.523 276.855 643.252 284.329 643.252 294.739V328.371H624.434V259.772H641.517L643.252 270.048C646.989 263.909 652.328 259.772 663.005 259.772ZM693.933 328.371L669.243 259.772H689.396L705.945 309.153L722.227 259.772H741.98L717.289 328.371H693.933ZM757.727 252.431C751.588 252.431 746.783 247.893 746.783 241.888C746.783 235.748 751.588 231.211 757.727 231.211C763.867 231.211 768.671 235.748 768.671 241.888C768.671 247.893 763.867 252.431 757.727 252.431ZM748.251 328.371V259.772H767.203V328.371H748.251ZM812.481 329.172C790.727 329.172 777.514 315.692 777.514 294.071C777.514 272.851 791.394 258.971 813.149 258.971C831.833 258.971 843.444 269.114 846.114 285.396H826.495C824.893 278.59 820.222 274.319 812.882 274.319C803.005 274.319 796.733 282.46 796.733 294.071C796.733 305.816 803.005 313.824 812.882 313.824C820.222 313.824 825.16 309.419 826.495 302.479H846.247C843.578 318.895 831.166 329.172 812.481 329.172ZM890.068 329.172C867.246 329.172 853.499 315.425 853.499 294.205C853.499 272.851 867.512 258.971 888.733 258.971C909.286 258.971 923.166 271.783 923.433 291.936C923.433 293.938 923.3 296.207 922.899 298.342H873.118V299.276C873.518 309.019 879.791 314.891 889.267 314.891C896.874 314.891 902.213 311.555 903.814 305.149H922.365C920.23 318.495 908.352 329.172 890.068 329.172ZM873.518 286.064H904.482C903.147 277.655 897.408 272.984 888.866 272.984C880.725 272.984 874.586 277.922 873.518 286.064ZM981.503 328.371H960.816L994.982 234.948H1019.01L1052.91 328.371H1031.42L1024.21 307.951H988.71L981.503 328.371ZM1006.33 256.302L994.048 291.802H1018.74L1006.33 256.302ZM1068.99 328.371L1046.56 259.772H1066.45L1080.2 308.085L1093.14 259.772H1110.09L1122.64 308.218L1136.65 259.772H1155.87L1133.31 328.371H1113.29L1101.28 286.998L1089 328.371H1068.99ZM1224.72 312.489H1226.86V328.371H1217.25C1207.51 328.371 1204.44 323.7 1204.57 317.16C1199.76 324.768 1192.82 329.172 1182.15 329.172C1167.33 329.172 1156.66 322.098 1156.66 309.019C1156.66 294.472 1167.6 286.197 1188.15 286.197H1201.77V282.86C1201.77 276.721 1197.36 272.717 1189.49 272.717C1182.15 272.717 1177.21 276.054 1176.41 281.125H1158.26C1159.59 267.779 1171.87 258.971 1190.02 258.971C1209.24 258.971 1220.32 267.512 1220.32 283.928V308.218C1220.32 311.822 1221.79 312.489 1224.72 312.489ZM1201.77 300.077V298.742H1188.02C1180.15 298.742 1175.61 301.946 1175.61 307.684C1175.61 312.489 1179.48 315.559 1185.75 315.559C1195.63 315.559 1201.63 309.419 1201.77 300.077ZM1272.71 259.772H1275.91V276.855H1268.44C1257.23 276.855 1252.96 284.329 1252.96 294.739V328.371H1234.14V259.772H1251.22L1252.96 270.048C1256.69 263.909 1262.03 259.772 1272.71 259.772ZM1331.88 268.313V234.948H1350.7V328.371H1334.28L1332.42 318.895C1327.88 324.768 1321.2 329.172 1311.33 329.172C1292.91 329.172 1279.43 315.692 1279.43 293.938C1279.43 272.717 1292.91 258.971 1311.2 258.971C1320.67 258.971 1327.48 262.708 1331.88 268.313ZM1315.47 313.824C1325.74 313.824 1332.15 305.816 1332.15 294.205C1332.15 282.46 1325.74 274.319 1315.47 274.319C1305.19 274.319 1298.65 282.327 1298.65 294.071C1298.65 305.816 1305.19 313.824 1315.47 313.824Z" fill="#292F36"/>
<path d="M463.342 496.836V486.18L488.878 465.06C494.734 460.26 498.382 456.228 498.382 450.756C498.382 444.132 494.062 440.676 487.918 440.676C481.486 440.676 477.07 445.092 477.07 452.388V453.444H463.15V451.524C463.15 438.852 472.654 429.06 488.014 429.06C503.758 429.06 512.302 437.604 512.302 450.18C512.302 460.068 506.926 466.116 498.478 472.932L483.406 485.22H512.686V496.836H463.342ZM518.592 464.772V461.7C518.592 441.636 530.016 429.06 546.24 429.06C562.56 429.06 573.984 441.636 573.984 461.7V464.772C573.984 485.22 562.56 497.412 546.24 497.412C530.016 497.412 518.592 485.22 518.592 464.772ZM560.16 464.292V462.18C560.16 448.356 554.496 440.772 546.24 440.772C538.08 440.772 532.416 448.356 532.416 462.18V464.292C532.416 478.212 538.08 485.7 546.24 485.7C554.496 485.7 560.16 478.212 560.16 464.292ZM579.311 496.836V486.18L604.847 465.06C610.703 460.26 614.351 456.228 614.351 450.756C614.351 444.132 610.031 440.676 603.887 440.676C597.455 440.676 593.039 445.092 593.039 452.388V453.444H579.119V451.524C579.119 438.852 588.623 429.06 603.983 429.06C619.727 429.06 628.271 437.604 628.271 450.18C628.271 460.068 622.895 466.116 614.447 472.932L599.375 485.22H628.655V496.836H579.311ZM662.881 451.044C676.417 451.044 685.537 460.356 685.537 474.084C685.537 489.54 674.017 497.412 660.097 497.412C644.545 497.412 634.945 487.524 634.369 475.236H648.097C648.769 481.284 652.993 486.084 660.193 486.084C666.049 486.084 671.617 482.052 671.617 474.084C671.617 466.98 667.105 461.988 660.097 461.988C656.353 461.988 651.169 463.428 648.769 468.996H635.425L637.345 429.636H681.505V441.252H649.921L649.153 455.94C652.513 452.868 656.929 451.044 662.881 451.044Z" fill="#9A9FAA"/>
<path d="M73.6777 237.707L225.063 389.092L376.447 237.707H73.6777Z" fill="#D9D9D9"/>
<path d="M73.6777 237.709H225.063V86.3242L73.6777 237.709Z" fill="url(#paint0_linear_4223_2433)"/>
<path d="M376.445 237.707H225.061V389.092L376.445 237.707Z" fill="#9A9FAA"/>
<path d="M332.713 496.745L225.062 389.094L117.41 496.745H332.713Z" fill="#9A9FAA"/>
<path d="M1245.97 456.484H1215.82C1217.14 450.356 1222.79 446.276 1230.71 446.276C1238.64 446.276 1243.69 449.886 1245.97 456.484M1265.08 469.934V467.885C1265.08 443.858 1251.03 429.082 1230.49 429.082C1221.73 429.082 1213.2 432.692 1206.7 439.173C1200.34 445.537 1196.86 453.832 1196.86 462.831C1196.86 471.831 1200.1 480.126 1206.35 486.741C1212.96 493.709 1220.89 497.068 1230.73 497.068C1245.15 497.068 1255.83 490.217 1262.08 476.768H1241.17C1238.28 479.286 1235.16 480.378 1231.32 480.378C1223.02 480.378 1218.1 476.768 1216.42 469.934H1265.07H1265.08Z" fill="#292F36"/>
<path d="M1317.79 456.484H1287.63C1288.96 450.356 1294.6 446.276 1302.52 446.276C1310.45 446.276 1315.49 449.886 1317.79 456.484M1336.89 469.934V467.885C1336.89 443.858 1322.84 429.082 1302.31 429.082C1293.54 429.082 1285.01 432.692 1278.51 439.173C1272.15 445.537 1268.67 453.832 1268.67 462.831C1268.67 471.831 1271.91 480.126 1278.16 486.741C1284.78 493.709 1292.7 497.068 1302.54 497.068C1316.96 497.068 1327.64 490.217 1333.89 476.768H1312.98C1310.1 479.286 1306.97 480.378 1303.15 480.378C1294.85 480.378 1289.93 476.768 1288.25 469.934H1336.89V469.934Z" fill="#292F36"/>
<path d="M1169.97 445.431V495.518H1188.59V445.431H1196.16V431.025H1188.59V429.463C1188.59 423.569 1189.92 421.655 1195.67 421.655H1196.16V408.676C1195.09 408.676 1194.11 408.559 1193.16 408.559C1177.29 408.559 1169.85 414.805 1169.85 428.623C1169.85 429.345 1169.97 430.185 1169.97 431.025H1163V445.448H1169.97V445.431Z" fill="#292F36"/>
<path d="M1344.12 445.435V495.521H1362.74V445.435H1370.32V431.028H1362.74V429.467C1362.74 423.573 1364.07 421.659 1369.83 421.659H1370.3V408.68C1369.23 408.68 1368.25 408.562 1367.29 408.562C1351.44 408.562 1343.99 414.809 1343.99 428.627C1343.99 429.349 1344.11 430.189 1344.11 431.028H1337.14V445.452H1344.11L1344.12 445.435Z" fill="#292F36"/>
<path d="M1419.5 463.332C1419.5 472.097 1412.65 479.182 1404.26 479.182C1395.86 479.182 1388.99 472.097 1388.99 463.332C1388.99 454.567 1395.84 447.364 1404.26 447.364C1412.67 447.364 1419.5 454.45 1419.5 463.332ZM1438.36 462.862C1438.36 454.097 1434.63 445.198 1427.8 438.717C1421.32 432.588 1413.27 429.348 1403.89 429.348C1395.12 429.348 1386.59 432.958 1380.1 439.439C1373.73 445.803 1370.26 454.097 1370.26 463.097C1370.26 472.097 1373.5 480.391 1379.74 486.889C1386.36 493.857 1394.28 497.216 1404.12 497.216C1413.96 497.216 1422.02 493.74 1428.64 487.124C1435.12 480.643 1438.36 472.584 1438.36 462.862" fill="#292F36"/>
<path d="M1467.53 452.385C1458.39 451.831 1451.04 444.493 1450.54 435.343H1490.5V434.906C1490.5 419.207 1480.47 408.746 1466.61 408.746C1451.96 408.746 1442.02 419.475 1442.02 433.412C1442.02 446.576 1452.32 458.178 1466.35 458.178C1476.56 458.178 1484.67 452.519 1489.02 442.042H1484.99C1482.09 448.171 1475.86 452.402 1468.62 452.402C1468.25 452.402 1467.91 452.402 1467.55 452.368" fill="#FFD100"/>
<path d="M1518.25 452.385C1527.39 451.831 1534.74 444.493 1535.25 435.343H1495.29V434.906C1495.29 419.207 1505.31 408.746 1519.18 408.746C1533.82 408.746 1543.76 419.475 1543.76 433.412C1543.76 446.576 1533.47 458.178 1519.43 458.178C1509.24 458.178 1501.13 452.519 1496.76 442.042H1500.81C1503.71 448.171 1509.94 452.402 1517.18 452.402C1517.55 452.402 1517.89 452.402 1518.25 452.368" fill="#FFD100"/>
<path d="M464.939 195.371V101.948H502.976C523.262 101.948 536.742 114.093 536.742 133.044C536.742 151.862 523.262 164.007 502.976 164.007H484.959V195.371H464.939ZM501.108 118.63H484.959V147.325H501.108C510.45 147.325 516.456 141.853 516.456 133.044C516.456 124.102 510.45 118.63 501.108 118.63ZM546.494 195.371V101.948H565.312V195.371H546.494ZM643.823 179.489H645.958V195.371H636.349C626.606 195.371 623.536 190.7 623.67 184.16C618.865 191.768 611.925 196.172 601.248 196.172C586.434 196.172 575.757 189.098 575.757 176.019C575.757 161.472 586.701 153.197 607.254 153.197H620.867V149.86C620.867 143.721 616.463 139.717 608.588 139.717C601.248 139.717 596.31 143.054 595.509 148.125H577.358C578.693 134.779 590.971 125.971 609.122 125.971C628.341 125.971 639.418 134.512 639.418 150.928V175.218C639.418 178.822 640.886 179.489 643.823 179.489ZM620.867 167.077V165.742H607.12C599.246 165.742 594.708 168.946 594.708 174.684C594.708 179.489 598.579 182.559 604.852 182.559C614.728 182.559 620.734 176.419 620.867 167.077ZM658.176 175.752V142.654H646.832V126.772H658.176V107.553H676.994V126.772H692.743V142.654H676.994V172.683C676.994 177.487 678.863 179.489 683.801 179.489H693.143V195.371H677.795C664.716 195.371 658.176 188.831 658.176 175.752ZM711.328 119.431C705.189 119.431 700.384 114.893 700.384 108.888C700.384 102.748 705.189 98.2106 711.328 98.2106C717.468 98.2106 722.272 102.748 722.272 108.888C722.272 114.893 717.468 119.431 711.328 119.431ZM701.853 195.371V126.772H720.804V195.371H701.853ZM773.156 125.971C787.97 125.971 800.649 133.845 800.649 157.334V195.371H781.831V159.203C781.831 147.592 777.427 141.452 767.951 141.452C758.208 141.452 752.603 148.392 752.603 160.271V195.371H733.784V126.772H750.2L751.935 135.313C756.34 129.975 762.612 125.971 773.156 125.971ZM858.284 161.071V126.772H877.102V195.371H860.419L858.684 187.096C854.28 192.435 848.274 196.172 838.531 196.172C824.384 196.172 811.305 189.098 811.305 164.808V126.772H830.123V162.272C830.123 174.551 834.127 180.557 843.469 180.557C852.812 180.557 858.284 173.75 858.284 161.071ZM972.265 125.971C986.412 125.971 997.622 133.978 997.622 156V195.371H978.804V157.067C978.804 146.791 975.067 141.452 966.926 141.452C958.785 141.452 953.313 147.458 953.313 157.868V195.371H934.495V157.067C934.495 146.791 930.758 141.452 922.483 141.452C914.342 141.452 909.004 147.725 909.004 158.002V195.371H890.185V126.772H906.601L908.336 135.313C912.474 129.975 918.479 126.104 928.489 125.971C936.897 125.837 944.771 128.907 949.042 137.582C953.847 130.242 961.855 125.971 972.265 125.971ZM1038.68 119.164V101.948H1112.75V119.164H1085.65V195.371H1065.64V119.164H1038.68ZM1154.63 126.772H1157.83V143.855H1150.35C1139.14 143.855 1134.87 151.329 1134.87 161.739V195.371H1116.05V126.772H1133.14L1134.87 137.048C1138.61 130.909 1143.95 126.772 1154.63 126.772ZM1212.01 161.071V126.772H1230.83V195.371H1214.15L1212.41 187.096C1208.01 192.435 1202 196.172 1192.26 196.172C1178.11 196.172 1165.03 189.098 1165.03 164.808V126.772H1183.85V162.272C1183.85 174.551 1187.85 180.557 1197.2 180.557C1206.54 180.557 1212.01 173.75 1212.01 161.071ZM1240.71 172.549H1258.59C1259.26 178.555 1264.47 182.692 1273.67 182.692C1281.55 182.692 1286.35 180.156 1286.35 175.352C1286.35 169.746 1281.68 169.346 1270.6 167.878C1254.59 166.009 1242.18 162.406 1242.18 148.259C1242.18 134.646 1254.06 125.704 1271.67 125.837C1290.09 125.837 1302.77 133.978 1303.7 147.992H1285.69C1285.15 142.52 1279.95 139.184 1272.34 139.184C1265 139.184 1260.19 141.853 1260.19 146.257C1260.19 151.462 1266.07 151.996 1275.94 153.197C1291.69 154.799 1304.77 158.402 1304.77 173.884C1304.77 187.497 1291.96 196.172 1273.54 196.172C1254.46 196.172 1241.51 187.23 1240.71 172.549ZM1319.62 175.752V142.654H1308.28V126.772H1319.62V107.553H1338.44V126.772H1354.19V142.654H1338.44V172.683C1338.44 177.487 1340.31 179.489 1345.25 179.489H1354.59V195.371H1339.24C1326.16 195.371 1319.62 188.831 1319.62 175.752ZM1396.16 196.172C1373.33 196.172 1359.59 182.425 1359.59 161.205C1359.59 139.851 1373.6 125.971 1394.82 125.971C1415.37 125.971 1429.25 138.783 1429.52 158.936C1429.52 160.938 1429.39 163.207 1428.99 165.342H1379.21V166.276C1379.61 176.019 1385.88 181.891 1395.35 181.891C1402.96 181.891 1408.3 178.555 1409.9 172.149H1428.45C1426.32 185.495 1414.44 196.172 1396.16 196.172ZM1379.61 153.064H1410.57C1409.23 144.655 1403.5 139.984 1394.95 139.984C1386.81 139.984 1380.67 144.922 1379.61 153.064ZM1489.59 135.313V101.948H1508.4V195.371H1491.99L1490.12 185.895C1485.58 191.768 1478.91 196.172 1469.03 196.172C1450.62 196.172 1437.14 182.692 1437.14 160.938C1437.14 139.717 1450.62 125.971 1468.9 125.971C1478.38 125.971 1485.18 129.708 1489.59 135.313ZM1473.17 180.824C1483.45 180.824 1489.85 172.816 1489.85 161.205C1489.85 149.46 1483.45 141.319 1473.17 141.319C1462.89 141.319 1456.35 149.327 1456.35 161.071C1456.35 172.816 1462.89 180.824 1473.17 180.824ZM461.202 297.675L480.821 297.942C481.489 307.017 488.696 313.29 500.173 313.29C509.382 313.29 516.189 309.286 516.189 301.946C516.189 294.071 508.582 292.47 492.966 289.4C477.218 286.464 463.338 281.392 463.338 262.441C463.338 245.891 477.084 234.147 498.171 234.147C520.193 234.147 534.206 245.625 534.473 263.508H514.854C513.92 255.634 507.914 250.162 498.171 250.162C489.63 250.162 483.491 253.766 483.491 260.973C483.491 268.58 490.831 270.182 506.313 273.118C522.328 276.054 536.475 280.859 536.342 299.677C536.208 317.16 521.794 329.172 499.906 329.172C476.15 329.172 461.336 316.626 461.202 297.675ZM580.785 329.172C557.963 329.172 544.216 315.425 544.216 294.205C544.216 272.851 558.229 258.971 579.45 258.971C600.003 258.971 613.883 271.783 614.15 291.936C614.15 293.938 614.017 296.207 613.616 298.342H563.835V299.276C564.235 309.019 570.508 314.891 579.984 314.891C587.591 314.891 592.93 311.555 594.531 305.149H613.082C610.947 318.495 599.069 329.172 580.785 329.172ZM564.235 286.064H595.198C593.864 277.655 588.125 272.984 579.583 272.984C571.442 272.984 565.303 277.922 564.235 286.064ZM663.005 259.772H666.208V276.855H658.734C647.523 276.855 643.252 284.329 643.252 294.739V328.371H624.434V259.772H641.517L643.252 270.048C646.989 263.909 652.328 259.772 663.005 259.772ZM693.933 328.371L669.243 259.772H689.396L705.945 309.153L722.227 259.772H741.98L717.289 328.371H693.933ZM757.727 252.431C751.588 252.431 746.783 247.893 746.783 241.888C746.783 235.748 751.588 231.211 757.727 231.211C763.867 231.211 768.671 235.748 768.671 241.888C768.671 247.893 763.867 252.431 757.727 252.431ZM748.251 328.371V259.772H767.203V328.371H748.251ZM812.481 329.172C790.727 329.172 777.514 315.692 777.514 294.071C777.514 272.851 791.394 258.971 813.149 258.971C831.833 258.971 843.444 269.114 846.114 285.396H826.495C824.893 278.59 820.222 274.319 812.882 274.319C803.005 274.319 796.733 282.46 796.733 294.071C796.733 305.816 803.005 313.824 812.882 313.824C820.222 313.824 825.16 309.419 826.495 302.479H846.247C843.578 318.895 831.166 329.172 812.481 329.172ZM890.068 329.172C867.246 329.172 853.499 315.425 853.499 294.205C853.499 272.851 867.512 258.971 888.733 258.971C909.286 258.971 923.166 271.783 923.433 291.936C923.433 293.938 923.3 296.207 922.899 298.342H873.118V299.276C873.518 309.019 879.791 314.891 889.267 314.891C896.874 314.891 902.213 311.555 903.814 305.149H922.365C920.23 318.495 908.352 329.172 890.068 329.172ZM873.518 286.064H904.482C903.147 277.655 897.408 272.984 888.866 272.984C880.725 272.984 874.586 277.922 873.518 286.064ZM981.503 328.371H960.816L994.982 234.948H1019.01L1052.91 328.371H1031.42L1024.21 307.951H988.71L981.503 328.371ZM1006.33 256.302L994.048 291.802H1018.74L1006.33 256.302ZM1068.99 328.371L1046.56 259.772H1066.45L1080.2 308.085L1093.14 259.772H1110.09L1122.64 308.218L1136.65 259.772H1155.87L1133.31 328.371H1113.29L1101.28 286.998L1089 328.371H1068.99ZM1224.72 312.489H1226.86V328.371H1217.25C1207.51 328.371 1204.44 323.7 1204.57 317.16C1199.76 324.768 1192.82 329.172 1182.15 329.172C1167.33 329.172 1156.66 322.098 1156.66 309.019C1156.66 294.472 1167.6 286.197 1188.15 286.197H1201.77V282.86C1201.77 276.721 1197.36 272.717 1189.49 272.717C1182.15 272.717 1177.21 276.054 1176.41 281.125H1158.26C1159.59 267.779 1171.87 258.971 1190.02 258.971C1209.24 258.971 1220.32 267.512 1220.32 283.928V308.218C1220.32 311.822 1221.79 312.489 1224.72 312.489ZM1201.77 300.077V298.742H1188.02C1180.15 298.742 1175.61 301.946 1175.61 307.684C1175.61 312.489 1179.48 315.559 1185.75 315.559C1195.63 315.559 1201.63 309.419 1201.77 300.077ZM1272.71 259.772H1275.91V276.855H1268.44C1257.23 276.855 1252.96 284.329 1252.96 294.739V328.371H1234.14V259.772H1251.22L1252.96 270.048C1256.69 263.909 1262.03 259.772 1272.71 259.772ZM1331.88 268.313V234.948H1350.7V328.371H1334.28L1332.42 318.895C1327.88 324.768 1321.2 329.172 1311.33 329.172C1292.91 329.172 1279.43 315.692 1279.43 293.938C1279.43 272.717 1292.91 258.971 1311.2 258.971C1320.67 258.971 1327.48 262.708 1331.88 268.313ZM1315.47 313.824C1325.74 313.824 1332.15 305.816 1332.15 294.205C1332.15 282.46 1325.74 274.319 1315.47 274.319C1305.19 274.319 1298.65 282.327 1298.65 294.071C1298.65 305.816 1305.19 313.824 1315.47 313.824Z" fill="#292F36"/>
<path d="M463.342 496.836V486.18L488.878 465.06C494.734 460.26 498.382 456.228 498.382 450.756C498.382 444.132 494.062 440.676 487.918 440.676C481.486 440.676 477.07 445.092 477.07 452.388V453.444H463.15V451.524C463.15 438.852 472.654 429.06 488.014 429.06C503.758 429.06 512.302 437.604 512.302 450.18C512.302 460.068 506.926 466.116 498.478 472.932L483.406 485.22H512.686V496.836H463.342ZM518.592 464.772V461.7C518.592 441.636 530.016 429.06 546.24 429.06C562.56 429.06 573.984 441.636 573.984 461.7V464.772C573.984 485.22 562.56 497.412 546.24 497.412C530.016 497.412 518.592 485.22 518.592 464.772ZM560.16 464.292V462.18C560.16 448.356 554.496 440.772 546.24 440.772C538.08 440.772 532.416 448.356 532.416 462.18V464.292C532.416 478.212 538.08 485.7 546.24 485.7C554.496 485.7 560.16 478.212 560.16 464.292ZM579.311 496.836V486.18L604.847 465.06C610.703 460.26 614.351 456.228 614.351 450.756C614.351 444.132 610.031 440.676 603.887 440.676C597.455 440.676 593.039 445.092 593.039 452.388V453.444H579.119V451.524C579.119 438.852 588.623 429.06 603.983 429.06C619.727 429.06 628.271 437.604 628.271 450.18C628.271 460.068 622.895 466.116 614.447 472.932L599.375 485.22H628.655V496.836H579.311ZM662.881 451.044C676.417 451.044 685.537 460.356 685.537 474.084C685.537 489.54 674.017 497.412 660.097 497.412C644.545 497.412 634.945 487.524 634.369 475.236H648.097C648.769 481.284 652.993 486.084 660.193 486.084C666.049 486.084 671.617 482.052 671.617 474.084C671.617 466.98 667.105 461.988 660.097 461.988C656.353 461.988 651.169 463.428 648.769 468.996H635.425L637.345 429.636H681.505V441.252H649.921L649.153 455.94C652.513 452.868 656.929 451.044 662.881 451.044Z" fill="#9A9FAA"/>
<path d="M73.6777 237.707L225.063 389.092L376.447 237.707H73.6777Z" fill="#D9D9D9"/>
<path d="M73.6777 237.709H225.063V86.3242L73.6777 237.709Z" fill="url(#paint1_linear_4223_2433)"/>
<path d="M376.445 237.707H225.061V389.092L376.445 237.707Z" fill="#9A9FAA"/>
<path d="M332.713 496.745L225.062 389.094L117.41 496.745H332.713Z" fill="#9A9FAA"/>
<path d="M1245.97 456.484H1215.82C1217.14 450.356 1222.79 446.276 1230.71 446.276C1238.64 446.276 1243.69 449.886 1245.97 456.484M1265.08 469.934V467.885C1265.08 443.858 1251.03 429.082 1230.49 429.082C1221.73 429.082 1213.2 432.692 1206.7 439.173C1200.34 445.537 1196.86 453.832 1196.86 462.831C1196.86 471.831 1200.1 480.126 1206.35 486.741C1212.96 493.709 1220.89 497.068 1230.73 497.068C1245.15 497.068 1255.83 490.217 1262.08 476.768H1241.17C1238.28 479.286 1235.16 480.378 1231.32 480.378C1223.02 480.378 1218.1 476.768 1216.42 469.934H1265.07H1265.08Z" fill="#292F36"/>
<path d="M1317.79 456.484H1287.63C1288.96 450.356 1294.6 446.276 1302.52 446.276C1310.45 446.276 1315.49 449.886 1317.79 456.484M1336.89 469.934V467.885C1336.89 443.858 1322.84 429.082 1302.31 429.082C1293.54 429.082 1285.01 432.692 1278.51 439.173C1272.15 445.537 1268.67 453.832 1268.67 462.831C1268.67 471.831 1271.91 480.126 1278.16 486.741C1284.78 493.709 1292.7 497.068 1302.54 497.068C1316.96 497.068 1327.64 490.217 1333.89 476.768H1312.98C1310.1 479.286 1306.97 480.378 1303.15 480.378C1294.85 480.378 1289.93 476.768 1288.25 469.934H1336.89V469.934Z" fill="#292F36"/>
<path d="M1169.97 445.431V495.518H1188.59V445.431H1196.16V431.025H1188.59V429.463C1188.59 423.569 1189.92 421.655 1195.67 421.655H1196.16V408.676C1195.09 408.676 1194.11 408.559 1193.16 408.559C1177.29 408.559 1169.85 414.805 1169.85 428.623C1169.85 429.345 1169.97 430.185 1169.97 431.025H1163V445.448H1169.97V445.431Z" fill="#292F36"/>
<path d="M1344.12 445.435V495.521H1362.74V445.435H1370.32V431.028H1362.74V429.467C1362.74 423.573 1364.07 421.659 1369.83 421.659H1370.3V408.68C1369.23 408.68 1368.25 408.562 1367.29 408.562C1351.44 408.562 1343.99 414.809 1343.99 428.627C1343.99 429.349 1344.11 430.189 1344.11 431.028H1337.14V445.452H1344.11L1344.12 445.435Z" fill="#292F36"/>
<path d="M1419.5 463.332C1419.5 472.097 1412.65 479.182 1404.26 479.182C1395.86 479.182 1388.99 472.097 1388.99 463.332C1388.99 454.567 1395.84 447.364 1404.26 447.364C1412.67 447.364 1419.5 454.45 1419.5 463.332ZM1438.36 462.862C1438.36 454.097 1434.63 445.198 1427.8 438.717C1421.32 432.588 1413.27 429.348 1403.89 429.348C1395.12 429.348 1386.59 432.958 1380.1 439.439C1373.73 445.803 1370.26 454.097 1370.26 463.097C1370.26 472.097 1373.5 480.391 1379.74 486.889C1386.36 493.857 1394.28 497.216 1404.12 497.216C1413.96 497.216 1422.02 493.74 1428.64 487.124C1435.12 480.643 1438.36 472.584 1438.36 462.862" fill="#292F36"/>
<path d="M1467.53 452.385C1458.39 451.831 1451.04 444.493 1450.54 435.343H1490.5V434.906C1490.5 419.207 1480.47 408.746 1466.61 408.746C1451.96 408.746 1442.02 419.475 1442.02 433.412C1442.02 446.576 1452.32 458.178 1466.35 458.178C1476.56 458.178 1484.67 452.519 1489.02 442.042H1484.99C1482.09 448.171 1475.86 452.402 1468.62 452.402C1468.25 452.402 1467.91 452.402 1467.55 452.368" fill="#FFD100"/>
<path d="M1518.25 452.385C1527.39 451.831 1534.74 444.493 1535.25 435.343H1495.29V434.906C1495.29 419.207 1505.31 408.746 1519.18 408.746C1533.82 408.746 1543.76 419.475 1543.76 433.412C1543.76 446.576 1533.47 458.178 1519.43 458.178C1509.24 458.178 1501.13 452.519 1496.76 442.042H1500.81C1503.71 448.171 1509.94 452.402 1517.18 452.402C1517.55 452.402 1517.89 452.402 1518.25 452.368" fill="#FFD100"/>
<path d="M1663 11H2062V590H1663V11Z" fill="url(#paint2_linear_4223_2433)"/>
<path d="M1757.05 425.701L1743.19 401.977H1752.63L1761.09 417.451L1769.99 401.977H1779L1765.14 425.701V439.719H1757.05V425.701ZM1798.41 439.719V401.977H1823.75V408.933H1806.5V417.397H1820.51V424.029H1806.5V432.764H1824.34V439.719H1798.41ZM1850.72 439.719H1842.37L1856.17 401.977H1865.87L1879.57 439.719H1870.89L1867.98 431.47H1853.63L1850.72 439.719ZM1860.75 410.604L1855.79 424.946H1865.77L1860.75 410.604ZM1899.21 439.719V401.977H1914.57C1922.88 401.977 1928.43 406.884 1928.43 414.54C1928.43 419.392 1925.9 423.274 1921.96 425.161L1929.4 439.719H1920.45L1914.09 427.048H1907.29V439.719H1899.21ZM1913.93 408.717H1907.29V420.309H1913.93C1917.75 420.309 1920.18 418.044 1920.18 414.54C1920.18 410.981 1917.75 408.717 1913.93 408.717ZM1947.83 427.318L1955.76 427.426C1956.03 431.092 1958.94 433.626 1963.58 433.626C1967.3 433.626 1970.05 432.009 1970.05 429.043C1970.05 425.862 1966.97 425.215 1960.66 423.975C1954.3 422.789 1948.7 420.74 1948.7 413.084C1948.7 406.398 1954.25 401.654 1962.77 401.654C1971.66 401.654 1977.33 406.291 1977.43 413.515H1969.51C1969.13 410.334 1966.7 408.124 1962.77 408.124C1959.32 408.124 1956.84 409.58 1956.84 412.491C1956.84 415.564 1959.8 416.211 1966.06 417.397C1972.53 418.584 1978.24 420.525 1978.19 428.127C1978.13 435.19 1972.31 440.042 1963.47 440.042C1953.87 440.042 1947.89 434.974 1947.83 427.318ZM1745.05 496.719V463.558H1758.55C1765.84 463.558 1770.72 467.869 1770.72 474.596C1770.72 478.859 1768.5 482.27 1765.04 483.928L1771.57 496.719H1763.71L1758.12 485.586H1752.15V496.719H1745.05ZM1757.98 469.48H1752.15V479.665H1757.98C1761.34 479.665 1763.47 477.675 1763.47 474.596C1763.47 471.469 1761.34 469.48 1757.98 469.48ZM1779.57 482.412V463.558H1786.68V482.791C1786.68 488.05 1788.62 490.892 1793.17 490.892C1797.76 490.892 1799.7 488.05 1799.7 482.791V463.558H1806.81V482.412C1806.81 491.839 1802.12 497.003 1793.17 497.003C1784.26 497.003 1779.57 491.839 1779.57 482.412ZM1823.94 496.719H1816.97V463.558H1823.42L1837.49 484.449V463.558H1844.5V496.719H1838.01L1823.94 475.827V496.719ZM1861.85 496.719H1854.88V463.558H1861.32L1875.39 484.449V463.558H1882.41V496.719H1875.92L1861.85 475.827V496.719ZM1892.79 496.719V463.558H1899.89V496.719H1892.79ZM1917.21 496.719H1910.25V463.558H1916.69L1930.76 484.449V463.558H1937.77V496.719H1931.28L1917.21 475.827V496.719ZM1962.6 497.003C1953.13 497.003 1946.83 490.323 1946.83 480.138C1946.83 469.953 1953.08 463.274 1963.27 463.274C1971.27 463.274 1976.91 468.2 1977.76 475.354H1970.66C1969.8 471.706 1967.15 469.29 1963.08 469.29C1957.54 469.29 1954.08 473.743 1954.08 480.138C1954.08 486.534 1957.39 490.987 1963.08 490.987C1966.87 490.987 1970.7 488.997 1971.37 484.355V483.928H1963.13V478.291H1977.95V496.719H1972.98L1972.27 492.739C1970.52 495.061 1967.29 497.003 1962.6 497.003Z" fill="white"/>
<path d="M1879.05 179.433C1931.24 179.433 1966.41 215.339 1966.41 268.272C1966.41 327.868 1921.99 358.221 1868.31 358.221C1808.35 358.221 1771.33 320.094 1769.11 272.714H1822.04C1824.63 296.034 1840.92 314.542 1868.68 314.542C1891.26 314.542 1912.73 298.995 1912.73 268.272C1912.73 240.88 1895.33 221.631 1868.31 221.631C1853.88 221.631 1833.89 227.184 1824.63 248.653H1773.18L1780.58 96.8869H1950.86V141.676H1829.08L1826.11 198.311C1839.07 186.466 1856.1 179.433 1879.05 179.433Z" fill="white"/>
<path d="M5.5814 5.5814H2066.42V595.419H5.5814V5.5814Z" stroke="#9A9FAA" stroke-width="11.1628"/>
<defs>
<linearGradient id="paint0_linear_4223_2433" x1="73.6777" y1="162.017" x2="225.063" y2="162.017" gradientUnits="userSpaceOnUse">
<stop offset="0.4062" stop-color="#C4C4C4"/>
<stop offset="1" stop-color="#D9D9D9" stop-opacity="0"/>
</linearGradient>
<linearGradient id="paint1_linear_4223_2433" x1="73.6777" y1="162.017" x2="225.063" y2="162.017" gradientUnits="userSpaceOnUse">
<stop offset="0.4062" stop-color="#C4C4C4"/>
<stop offset="1" stop-color="#D9D9D9" stop-opacity="0"/>
</linearGradient>
<linearGradient id="paint2_linear_4223_2433" x1="1655.5" y1="-5.50001" x2="2125" y2="590" gradientUnits="userSpaceOnUse">
<stop offset="0.282929" stop-color="#9A9FAA"/>
<stop offset="0.501941" stop-color="#BBC1D1"/>
<stop offset="0.75637" stop-color="#9197A4"/>
</linearGradient>
</defs>
</svg>
