<?xml version="1.0" encoding="UTF-8"?>
<svg id="Layer_1" xmlns="http://www.w3.org/2000/svg" version="1.1" viewBox="0 0 545 207">
  <!-- Generator: Adobe Illustrator 29.1.0, SVG Export Plug-In . SVG Version: 2.1.0 Build 142)  -->
  <defs>
    <style>
      .st0 {
        fill: #dbc999;
        stroke: #dbc999;
        stroke-miterlimit: 10;
      }
    </style>
  </defs>
  <path class="st0" d="M152.5,147.3v-13.9h6.8c5.2,0,6.8,3.6,6.8,7s-1.6,7-6.8,7h-6.8ZM169,140c0-5.4-2.9-10.1-9.6-10.1h-9.7v34.4h2.9v-14.2h6.6l9,14.2h3.4l-9.3-14.5c4.7-1.1,6.9-5.1,6.9-9.7"/>
  <polygon class="st0" points="189.3 164.3 207 164.3 207 161.5 192.1 161.5 192.1 147.6 204.4 147.6 204.4 144.8 192.1 144.8 192.1 132.7 207 132.7 207 129.9 189.3 129.9 189.3 164.3"/>
  <path class="st0" d="M315.3,147.3v-13.9h6.8c5.2,0,6.8,3.6,6.8,6.9s-1.6,6.9-6.8,6.9h-6.8ZM331.8,140c0-5.4-2.9-10.1-9.6-10.1h-9.7v34.4h2.9v-14.2h6.6l9,14.2h3.4l-9.3-14.6c4.7-1.1,6.9-5.1,6.9-9.8"/>
  <path class="st0" d="M403.2,145.8h0c-5.9-1.6-7.7-3.8-7.7-7.3s3.1-6.1,7-6.1,7.2,1.9,9.2,3.8v-3.4c-1.9-1.5-5.2-3-9.2-3s-9.9,3-9.9,9,3,7.9,8.7,9.5h0c5.9,1.6,7.7,3.8,7.7,7.3s-3.1,6.1-7,6.1-7.2-1.9-9.2-3.8v3.4c1.9,1.5,5.2,3,9.2,3s9.9-3,9.9-9-3-7.9-8.7-9.5"/>
  <path class="st0" d="M277.6,161.5c-7.6,0-13-5.8-13-14.4s5.5-14.4,13-14.4,13,5.8,13,14.4-5.6,14.4-13,14.4M277.6,129.9c-9.2,0-16,7.2-16,17.2s6.8,17.2,16,17.2,16-7.2,16-17.2-6.8-17.2-16-17.2"/>
  <polygon class="st0" points="347.8 132.7 359 132.7 359 164.3 361.8 164.3 361.8 132.7 373 132.7 373 129.9 347.8 129.9 347.8 132.7"/>
  <path class="st0" d="M235.8,145.8h0c-5.9-1.6-7.7-3.8-7.7-7.3s3.1-6.1,7-6.1,7.2,1.9,9.2,3.8v-3.4c-1.9-1.5-5.2-3-9.2-3s-9.9,3-9.9,9,3,7.9,8.7,9.5h0c5.9,1.6,7.7,3.8,7.7,7.3s-3.1,6.1-7,6.1-7.2-1.9-9.2-3.8v3.4c1.9,1.5,5.2,3,9.2,3s9.9-3,9.9-9-3-7.9-8.7-9.5"/>
  <path class="st0" d="M466.1,59.6h2.2c.9-3.6,1.5-6,2.4-7.4,1-1.9,2.5-2.6,8.9-2.6h4.7v41.4c0,6.5-.6,7.4-7.6,7.9v2.3h22v-2.3c-7.3-.5-7.9-1.3-7.9-7.9v-41.4h5.4c5.7,0,7,.6,8.3,2.6.9,1.3,1.6,3.4,2.4,7.4l2.2-.2v-12.6h-43.1v12.8Z"/>
  <path class="st0" d="M423.5,46.8v2.3c5.3.3,7.1,1.4,7.5,5.1.2,2.3.5,6.1.5,13.7v20.3h-.2l-31.9-41.5h-10.2v2.3h0c4.4.2,6.7,1.3,7.1,5.4v6c.1,0,.1,18.2.1,18.2,0,7.6-.2,12.3-.5,14.9-.4,4.1-2.3,5.1-6.7,5.4v2.3h18.1v-2.3c-5.2-.3-7-1.3-7.3-5.5-.2-2.4-.5-7.1-.5-14.7v-20.8h.2l32.6,43.3h2.4v-33.3c0-7.7.2-11.4.5-13.9.3-3.6,2.1-4.7,6.4-5v-2.3h-18Z"/>
  <path class="st0" d="M333.9,78.4c2.3-6.7,4.7-13.9,7.2-20.9h.2l6.7,20.9h-14.1ZM359,90.7c-4.9-14.3-10-29.8-14.8-43.9h-2.1l-16.1,43.8c-2.7,7.2-3.7,7.7-8.6,8.4v2.3h16.6v-2.3c-5.7-.6-6.4-1.4-4.7-6.6,1-3.4,2.1-6.9,3.4-10.6h16.3c1.7,5,3.2,9.4,4.2,12.6,1,3.2.3,3.9-4.5,4.5v2.3h18.7v-2.3c-5-.5-6-1.2-8.4-8.3"/>
  <path class="st0" d="M295.7,76h-19.4v2.2c7.5.6,8,1.1,8,6.9v6.8c0,3.4-.9,4.3-2.4,5.2-1.7.9-4.1,1.4-6.7,1.4-14.8,0-21.3-13.5-21.3-25s8.6-23.8,20.3-23.8,13.1,2.6,14.9,12.4l2.1-.5c-.6-5.3-1-9.7-1.2-12.5-2.4-.6-8.3-2.3-14.7-2.3-15,0-29.2,9.1-29.2,27.7s11.2,26.9,28.1,26.9,12.4-1.8,17.1-3c-.5-2.2-.5-4.7-.5-7.5v-6.8c0-4.7.3-5.1,4.9-5.9v-2.2Z"/>
  <path class="st0" d="M81.3,95.6c-1.7,2.2-3.8,2.9-9.6,2.9s-6.5,0-8-1.1c-1.4-1.1-1.8-2.9-1.8-6.8v-14.7h7.2c6.9,0,7.3.7,8.3,6.3h2.2v-16.1h0c0-.1-2.2-.1-2.2-.1-1,5.6-1.4,6.3-8.3,6.3h-7.2v-14.7c0-3.9.5-5.7,1.8-6.8,1.5-1,4.1-1.1,8-1.1,5.8,0,8,.7,9.6,2.9,1.3,1.7,2.8,4.5,3.7,7.9l2.3-.3-2.7-13.3h-36.9v2.3c5.9.5,7.2,1,7.5,5.3,0,0,0,0,0,0,0,0,0,0,0,0,0,.8,0,1.8,0,3v33c0,1.2,0,2.1,0,3,0,0,0,0,0,0,0,0,0,0,0,0-.3,4.2-1.6,4.8-7.5,5.3v2.3h36.9l2.7-13.2-2.3-.3c-1,3.4-2.4,6.2-3.7,7.9"/>
  <path class="st0" d="M114.6,46.8v2.3c5.9.5,7.2,1,7.5,5.3,0,0,0,0,0,0,0,0,0,0,0,0,0,.8,0,1.8,0,3v33c0,1.2,0,2.1,0,3,0,0,0,0,0,0,0,0,0,0,0,0-.3,4.2-1.6,4.8-7.5,5.3v2.3h36.9l2.7-13.2-2.3-.3c-1,3.4-2.4,6.2-3.7,7.9-1.7,2.2-3.8,2.9-9.6,2.9s-6.5,0-8-1.1c-1.4-1.1-1.8-2.9-1.8-6.8v-33c0-1.2,0-2.1,0-3,0,0,0,0,0,0,0,0,0,0,0,0,.3-4.2,1.6-4.8,7.5-5.3v-2.3h-10.8"/>
  <path class="st0" d="M214.2,96c-1.1,1.8-3.1,2.3-8.6,2.3h-8.5c-2.4,0-2.5-.2-2.5-2.7v-19.9h7.2c6.9,0,7.3.7,8.3,6.3h2.2v-16.1h-2.2c-1,6-1.5,6.5-8.2,6.5h-7.3v-20.1c0-2.5.2-2.7,2.5-2.7h8.5c5.5,0,7.6.6,8.6,2.3,1,1.8,1.8,3.7,2.4,7.2l2.2-.4c-.2-4.3-.6-10-.6-12.1h-36.8v2.3c6,.6,6.6.8,6.6,8.4v33c0,7.5-.6,7.8-6.6,8.4v2.3h36.8c0-2.1.4-7.8.6-12.1l-2.2-.4c-.7,3.5-1.5,5.4-2.4,7.2"/>
</svg>