<?xml version="1.0" encoding="UTF-8"?>
<svg id="Layer_1" xmlns="http://www.w3.org/2000/svg" version="1.1" viewBox="0 0 1075 216">
  <!-- Generator: Adobe Illustrator 29.5.1, SVG Export Plug-In . SVG Version: 2.1.0 Build 141)  -->
  <defs>
    <style>
      .st0 {
        fill: #fff;
      }
    </style>
  </defs>
  <g>
    <path class="st0" d="M432.1,59.8v-4.3l-26-27.1c-1.5,1.3-2.8,2.8-4.1,4.3l26,27.1h4.1Z"/>
    <path class="st0" d="M399.1,36.2c-5,6.8-8.5,14.8-10.1,23.5h32.7l-22.6-23.5Z"/>
    <path class="st0" d="M432.1,48.9V15c-8.4,1.6-16,5.3-22.6,10.5l22.6,23.4Z"/>
    <g>
      <path class="st0" d="M388,195.1l15.8-42.7h5.9l16.8,42.7h-6.2l-4.8-12.9h-17.2l-4.5,12.9h-5.8ZM399.8,177.5h13.9l-4.3-11.8c-1.3-3.6-2.3-6.5-2.9-8.9-.5,2.7-1.3,5.5-2.2,8.2l-4.5,12.5Z"/>
      <path class="st0" d="M430.5,195.1v-42.7h15.4c3.1,0,5.7.4,7.5,1.3,1.9.9,3.4,2.2,4.5,4s1.6,3.7,1.6,5.6-.5,3.5-1.4,5.2c-1,1.6-2.4,2.9-4.3,3.9,2.5.8,4.4,2,5.7,3.9,1.3,1.8,2,4,2,6.5s-.4,3.9-1.2,5.6c-.8,1.7-1.8,3-3,4-1.2.9-2.7,1.6-4.5,2.1s-4,.7-6.6.7h-15.7ZM435.9,170.3h8.9c2.4,0,4.1-.2,5.2-.5,1.4-.4,2.4-1.1,3.1-2.1s1-2.2,1-3.7-.3-2.7-1-3.7c-.7-1.1-1.6-1.8-2.8-2.2s-3.3-.6-6.2-.6h-8.2v12.8ZM435.9,190h10.2c1.8,0,3-.1,3.7-.2,1.2-.2,2.3-.6,3.1-1.2s1.5-1.3,2.1-2.4c.5-1,.8-2.2.8-3.6s-.4-3-1.2-4.2-1.9-2-3.3-2.5c-1.4-.5-3.4-.7-6-.7h-9.5v14.8h.1Z"/>
    </g>
    <g>
      <path class="st0" d="M477.1,195.1v-37.7h-13.5v-5h32.5v5h-13.6v37.7h-5.4Z"/>
      <path class="st0" d="M497.2,195.1l15.8-42.7h5.9l16.8,42.7h-6.2l-4.8-12.9h-17.2l-4.5,12.9h-5.8ZM509,177.5h14l-4.3-11.8c-1.3-3.6-2.3-6.5-2.9-8.9-.5,2.7-1.3,5.5-2.2,8.2l-4.6,12.5Z"/>
    </g>
    <path class="st0" d="M546.2,195.1v-42.7h5.6l21.6,33.5v-33.5h5.2v42.7h-5.6l-21.6-33.6v33.6h-5.2Z"/>
    <g>
      <path class="st0" d="M585.1,179.6c0-5.7,1.5-10,4.6-12.7,2.6-2.3,5.7-3.4,9.4-3.4s7.4,1.4,10,4.2,3.9,6.6,3.9,11.5-.6,7.1-1.7,9.4c-1.1,2.3-2.8,4.1-5,5.3s-4.6,1.9-7.2,1.9c-4.2,0-7.5-1.4-10.1-4.2s-3.9-6.8-3.9-12ZM590.3,179.6c0,4,.8,6.9,2.5,8.9s3.8,3,6.3,3,4.6-1,6.2-3c1.7-2,2.5-5,2.5-9.1s-.8-6.7-2.5-8.7-3.7-3-6.2-3-4.6,1-6.3,2.9c-1.7,2.1-2.5,5-2.5,9Z"/>
      <path class="st0" d="M620.3,195.1v-6h5.7v6h-5.7Z"/>
    </g>
    <g>
      <path class="st0" d="M644.9,195.1l-15.9-42.7h5.9l10.7,31c.9,2.5,1.6,4.8,2.2,7,.6-2.3,1.4-4.7,2.2-7l11.1-31h5.5l-16.1,42.7h-5.6Z"/>
      <path class="st0" d="M688.4,195.1h-5v-33.4c-1.2,1.2-2.8,2.4-4.8,3.6s-3.7,2.1-5.3,2.7v-5.1c2.8-1.4,5.3-3,7.4-5,2.1-2,3.6-3.9,4.5-5.7h3.2v42.9h0Z"/>
      <path class="st0" d="M701.6,158v-5h26.6v4.1c-2.6,2.9-5.2,6.7-7.8,11.5s-4.6,9.7-6,14.8c-1,3.6-1.7,7.5-1.9,11.7h-5.2c0-3.4.7-7.4,1.9-12.2s3-9.3,5.2-13.8c2.3-4.4,4.7-8.1,7.2-11.2h-20Z"/>
      <path class="st0" d="M752.1,195.1h-5v-33.4c-1.2,1.2-2.8,2.4-4.8,3.6s-3.7,2.1-5.3,2.7v-5.1c2.8-1.4,5.3-3,7.4-5,2.1-2,3.6-3.9,4.5-5.7h3.2v42.9h0Z"/>
      <path class="st0" d="M791.5,190v5h-27.1c0-1.3.2-2.5.6-3.6.7-1.9,1.8-3.8,3.3-5.7s3.7-4,6.6-6.5c4.5-3.8,7.5-6.8,9-9s2.4-4.3,2.4-6.3-.7-3.8-2.1-5.3-3.3-2.1-5.6-2.1-4.4.8-5.8,2.3-2.2,3.6-2.2,6.3l-5.2-.6c.4-4,1.7-7.1,4-9.2,2.3-2.1,5.4-3.2,9.3-3.2s7.1,1.1,9.4,3.4c2.3,2.3,3.4,5.1,3.4,8.4s-.3,3.4-1,5-1.8,3.4-3.3,5.2c-1.6,1.8-4.1,4.3-7.8,7.5-3,2.6-5,4.4-5.8,5.4-.9.9-1.6,1.9-2.1,2.8h20v.2Z"/>
    </g>
    <path class="st0" d="M461.7,111.1c2.8-4.4,5.1-9.2,6.9-14.4h9.2c-4.1,6.1-9.6,11.1-16.1,14.4M448.1,115.4v-18.7h9.9c-2.4,6.9-5.8,13.2-9.9,18.7h0ZM457.9,43.9h-9.7v-18.4c3.9,5.4,7.3,11.6,9.7,18.4M477.7,43.9h-9.2c-1.8-5.1-4.2-9.9-6.9-14.2,6.4,3.3,11.9,8.2,16.1,14.2M472.9,65c-.2-3.6-.7-7.2-1.5-10.6h11.7c1.2,3.4,2,6.9,2.4,10.6h-12.6ZM472.9,75.6h12.8c-.4,3.7-1.2,7.2-2.4,10.6h-11.7c.6-3.5,1.1-7,1.3-10.6M448.1,65v-10.5h12.7c.7,3.4,1.2,7,1.4,10.6h-14.1ZM462.2,75.6c-.2,3.6-.7,7.1-1.3,10.6h-12.7v-10.6h14ZM442.3,13.9c-1.7,0-3.4.1-5.1.3v112.7c1.7.2,3.4.2,5.1.2,30,0,54.4-25.3,54.4-56.6s-24.3-56.6-54.4-56.6"/>
    <path class="st0" d="M617.9,79.9h-12.4v25.9h10.5c11.1,0,16.5-5.1,16.5-13.6s-5.3-12.3-14.6-12.3M614.8,41.1h-9.3v24.4h8.7c7.4,0,12.8-5,12.8-12.8,0-6.6-4.3-11.6-12.2-11.6M617.5,120.2h-28.5V26.6h28.1c18.2,0,26.5,12.9,26.5,24.3s-3.6,14.9-10.8,19.5v.3c10.4,2.4,16.7,10,16.7,21.3s-9.3,28.2-32,28.2"/>
    <polygon class="st0" points="715.8 40.9 691.8 40.9 691.8 120.2 675.1 120.2 675.1 40.9 649.1 40.9 649.1 26.6 721.1 26.6 715.8 40.9"/>
    <path class="st0" d="M542.5,61.2c-1.7-4.7-2.8-8.6-3.4-11.7h0c-.5,3.3-1.8,7-3.3,11.4l-7.8,21.8h21.9l-7.3-21.5ZM563.8,120.2l-8.9-23.5h-32.1l-8.3,23.5h-16.5l34.8-93.6h12.4l36.1,93.6h-17.5Z"/>
    <path class="st0" d="M748.7,61.2c-1.7-4.7-2.7-8.6-3.4-11.7h0c-.5,3.3-1.8,7-3.3,11.4l-7.9,21.8h21.9l-7.2-21.5ZM770,120.2l-8.9-23.5h-32.1l-8.3,23.5h-16.5l34.8-93.6h12.4l36.1,93.6h-17.5Z"/>
    <path class="st0" d="M432.1,80.8v4.3l-26,27.1c-1.5-1.4-2.8-2.8-4.1-4.3l26-27.1h4.1Z"/>
    <path class="st0" d="M432.1,65.2h-43.9c-.2,1.7-.2,3.5-.2,5.3s0,3.5.2,5.3h43.9v-10.6Z"/>
    <path class="st0" d="M409.5,115.2c6.5,5.2,14.2,8.8,22.6,10.5v-34l-22.6,23.5Z"/>
    <path class="st0" d="M421.7,80.8h-32.7c1.6,8.7,5.1,16.7,10.1,23.5l22.6-23.5Z"/>
  </g>
  <path class="st0" d="M170.1,100c5.1-4.4,10.1-10.3,13.3-16.5-4.4-1.4-8.9-2.5-13.3-2.5v19ZM166.8,99.8c-5.4-4.1-10.3-10.1-13.6-16.3,4.4-1.6,8.9-2.5,13.6-2.5v18.8ZM170.1,15.4c5.1,4.1,10.1,10.1,13.3,16.3-4.4,1.6-8.9,2.5-13.3,2.5V15.4ZM166.8,15.4c-5.4,4.1-10.3,10.1-13.6,16.3,4.4,1.4,8.9,2.5,13.6,2.5V15.4ZM170.1,77.8v-18.6h19.9c0,7.3-1.9,14.7-5.1,21.3-4.5-1.6-9.9-2.7-14.8-2.7M213.3,59.2h-20.1c-.2,8-1.9,15.4-5.1,22.7,4.2,1.8,8.2,4.4,11.9,7.3,8-8,12.9-18.8,13.3-30M197.5,91.3c-3-2.5-7-5-11-6.7-3.5,6.7-7.9,12.2-13.6,17,9.1-1.1,17.5-4.3,24.6-10.3M166.8,77.8v-18.6h-20.1c.2,7.3,1.9,14.9,5.1,21.3,4.7-1.6,9.9-2.7,15-2.7M123.3,59.2h20.1c.2,8,2.1,15.1,5.4,22.7-4.4,1.8-8.4,4.4-12.2,7.3-7.9-8-12.8-18.5-13.3-30M139.2,91.3c3.3-2.5,7-5.3,11-6.7,3.5,6.7,7.9,12.2,13.6,17-9.1-1.1-17.6-4.3-24.6-10.3M170.1,37.4v18.6h19.9c0-7.6-1.9-14.7-5.1-21.6-4.8,1.9-9.9,2.8-14.8,3M213.3,56h-20.1c-.2-8-2.1-15.4-5.1-22.7,4.2-1.8,8.2-4.4,11.9-7.3,8.4,8.4,12.9,18.8,13.3,30M197.5,23.7c-3.3,2.7-7,5.3-11,6.9-3.5-6.7-7.9-11.9-13.6-17,9.1.9,17.5,4.3,24.6,10.1M166.8,37.4v18.6h-20.1c.2-7.3,1.9-14.7,5.1-21.6,4.7,1.9,9.9,2.8,15,3M123.3,56h20.1c.2-8.3,2.1-15.4,5.4-22.7-4.4-1.8-8.4-4.4-12.2-7.3-8.1,8-12.8,18.5-13.3,30M139.2,23.7c3.3,2.7,7,5.3,11,6.9,3.3-6.7,8.2-12.1,13.6-17-9.1.9-17.6,4.3-24.6,10.1M24.4,72.3h89.8c3.3,16.3,14.7,29.8,37.6,39.2-2.6,7.8-11.5,14.9-20.6,14.9h-48.9c-7.5,0-13.3-6.2-15.7-11.2h49.6c3-.5,3-2.8.2-3.2h-48.9c-6.3,0-11.9-5.3-15.2-11h56.6c3-.5,3-2.8,0-3.2h-57.1c-5.8,0-11-6.7-13.1-11h62.7c3-.5,3-3.2,0-3.4h-63.8c-5-.1-9.7-5.4-13.2-11.1M312.3,72.3h-89.8c-3.3,16.3-14.7,29.8-37.7,39.2,2.6,7.8,11.5,14.9,20.6,14.9h48.9c7.5,0,13.3-6.2,15.7-11.2h-49.6c-3-.5-3-2.8-.2-3.2h48.9c6.3,0,11.9-5.3,15.2-11h-56.6c-3-.5-3-2.8,0-3.2h57.1c5.8,0,11-6.7,13.1-11h-62.7c-3-.5-3-3.2,0-3.4h63.7c5.2-.1,9.9-5.4,13.4-11.1M211,195.4l28.8-57.8h18.9l11.9,57.8h-18l-.7-6.9h-18.9l-3,6.9h-19ZM237.7,176.6h12.2l-3-21.3-9.2,21.3ZM173.4,195.4l6.8-43.3h-16.8l2.8-14.7h51.4l-2.8,14.7h-15.9l-6.5,43.3h-19ZM96.2,195.4l29-57.8h18.9l11.7,57.8h-17.5l-1.2-6.9h-18.7l-3,6.9h-19.2ZM123.1,176.6h12.2l-3.3-21.3-8.9,21.3ZM65.3,195.4l11.7-57.8h19.2l-11.7,57.8h-19.2Z"/>
  <path class="st0" d="M989,120.2s-21.2-.3-31.7-21.2c-14.5-29,15.7-44.5,15.7-44.5l26.8,4.8-10.8,60.9Z"/>
  <path class="st0" d="M862.3,91.5c-8.8,50.1,24.7,98,74.7,106.9,50,8.8,97.9-24.7,106.8-74.8,1-5.4,1.4-10.8,1.4-16.1,0-43.9-31.5-82.9-76.2-90.8-49.9-8.9-97.8,24.7-106.7,74.8M938.1,192.4c-46.8-8.3-78.2-53.1-69.9-99.9,8.3-46.9,53.1-78.3,99.9-70,46.8,8.3,78.2,53.1,69.9,99.9s-53.1,78.3-99.9,70"/>
  <path class="st0" d="M874.1,127.4c0-.7-.2-1.4-.4-2.1s-.4-1.3-.7-2l18.7-5.1,1.8,6.7c1,3.8,0,6.3-3,7.1-4.9,1.3-6.9-1.9-8.2-6.9l-8.2,2.3ZM883.8,124.7c.2.6.4,1.2.7,1.7,1,1.6,2.7,1.9,4.4,1.4,2.2-.6,3.3-2.1,2.9-3.5l-.5-1.7-7.5,2.1Z"/>
  <path class="st0" d="M896.3,133.3l3,5.2c.7,1.1,1.8,2.9,1.8,4.2,0,1.8-.6,3.2-2.2,4.2-2.4,1.4-4.8.8-6.6-1.2-1.6,2.7-2.9,5.6-4.3,8.4l-1,1.8c-.4-.8-.7-1.5-1.2-2.3-.4-.7-.9-1.4-1.4-2.1l3.4-5.9c.4-.8,1.2-2.1,1.8-3.2v-.2c0,0-7.9,4.6-7.9,4.6-.3-.6-.6-1.3-1-1.9-.4-.6-.8-1.2-1.2-1.8l16.8-9.8ZM890.5,141.5c1.3,2.7,3.2,3.3,5.7,1.8.3-.2.7-.4,1.1-.8,1.8-1.6.5-3.3-.3-4.8l-6.5,3.8Z"/>
  <path class="st0" d="M899,168.9c-4.7-4.1-5.5-9.7-1.2-14.5,3.7-4.2,9.8-5,15.1-.3,6.1,5.3,4.1,11.2,1.2,14.5-3.6,4.2-9.9,4.9-15.1.3M900.8,158.2c-2.4,2.8-3.7,6.8-.5,9.6,3.3,2.9,7.6.9,10.7-2.7,2.4-2.7,3.9-7,.7-9.8-3-2.6-6.8-1.9-10.9,2.9"/>
  <path class="st0" d="M922.7,183.2c-.6-.3-1.2-.7-1.9-1-.7-.3-1.3-.5-2-.7l6.9-16c-1.8-.8-3.6-1.3-5-1.7.2-.3.4-.7.6-1.1.2-.4.2-.8.3-1.1l13.4,5.8c-.2.3-.4.7-.6,1-.2.4-.2.8-.3,1.2-1.5-.8-2.9-1.7-4.5-2.4l-6.9,16Z"/>
  <path class="st0" d="M948.6,169.7c0,.4-.3.8-.3,1.2,0,.4,0,.8,0,1.2-1.7-.5-3.5-1.1-6.4-1.5l-1,6,2.9.5c1.3.2,2.4.3,3.5.3,0,.4-.3.8-.3,1.2,0,.4,0,.8,0,1.2-1-.3-2.1-.6-3.4-.8l-2.9-.5-1.2,7.1c2.9.5,4.8.6,6.5.7,0,.4-.3.8-.3,1.2,0,.4,0,.8,0,1.2l-10.6-1.8,3.2-19,10.6,1.8Z"/>
  <path class="st0" d="M968.8,184.6l-.4,2.5c-1.6,1-3.6,1.6-5.5,1.8-6,.6-10.9-2.7-11.5-8.5-.7-7.4,4-11.2,10.2-11.8,1.9-.2,4.2.1,5.9.8-.2,1-.2,2-.4,3h-.4c-1.2-1.4-3.1-2.3-4.9-2.1-4.7.5-6.1,5.1-5.7,9.3.5,4.8,3.2,8,7.5,7.5,1.7-.2,3.7-1.3,4.8-2.6h.4Z"/>
  <path class="st0" d="M984.8,182.6c-.7.2-1.4.4-2,.6-.7.3-1.3.6-1.9.9l-6.4-16.1c-1.9.7-3.5,1.6-4.8,2.3-.1-.4-.2-.8-.3-1.2s-.4-.7-.6-1.1l13.6-5.3c.1.4.2.8.3,1.2.2.4.4.7.6,1.1-1.6.4-3.3.8-4.9,1.5l6.4,16.1Z"/>
  <path class="st0" d="M993.7,154.8c.2.4.4.8.6,1.1.2.3.5.6.8.9-1.5.8-3.2,1.7-5.6,3.4l3.5,5,2.4-1.7c1-.7,1.9-1.5,2.7-2.2.2.4.4.8.6,1.1.2.3.5.6.8.9-.9.5-2,1.1-3,1.8l-2.4,1.7,4.1,5.9c2.3-1.7,3.8-2.9,5.1-4.1.2.4.4.8.6,1.1.2.3.5.6.8.9l-8.8,6.2-11-15.8,8.8-6.2Z"/>
  <path class="st0" d="M1002.5,145.1c3.9-4.6,8.8-3.9,12.4-1.1,5,4,5.2,9.8,1.6,14.4l-4.9,6.2-15.1-12,6-7.5ZM1013,160.3l1.5-1.9c2.4-3.1,2.7-6.6-2.5-10.7-4.2-3.3-7.4-2.6-9.8.5l-1.7,2.2,12.5,9.9Z"/>
  <path class="st0" d="M922.9,127.2l2.9-3.1,1.6,3.9-4.5-.8ZM928.3,122.4l-4.2-.7-8,7.9,3.9.7,1.5-1.6,6.6,1.2.8,2.1,4,.7-4.6-10.3ZM935.4,123.7l-.3,1.6,5.4,1-1.3,7.4,3.7.7,1.3-7.4,5.3.9.3-1.6-14.4-2.6ZM955.2,134.2c-.8-.7-1.1-1.6-.9-2.6s.8-1.7,1.7-2.1c1-.4,2.2-.5,3.7-.2s2.6.7,3.4,1.4,1.1,1.6.9,2.6-.7,1.7-1.7,2.1c-1,.4-2.2.5-3.7.2-1.5-.2-2.7-.7-3.4-1.4M965.6,129.8c-1.2-.9-3.1-1.6-5.6-2.1-2.5-.4-4.6-.4-6,0-2,.5-3.1,1.6-3.4,3.2s.4,3,2.1,4.2c1.2.9,3.1,1.6,5.6,2.1,2.6.5,4.6.4,6,0,2-.5,3.1-1.6,3.4-3.2.2-1.6-.5-3-2.1-4.2M969.7,139.1l12.6,2.2.3-1.6-8.8-1.6,1.3-7.4-3.7-.7-1.7,9.1ZM939.6,48.6c-11.1,20.1-11,42,6.7,60.5,17.7,18.5,41.8,15.5,41.8,15.5l-5,27.9-74.6-13.2,16.4-93.3,14.7,2.6Z"/>
  <path class="st0" d="M941.9,41.5c.6-.8,1.6-1.5,3.1-2.1l2.1-.8c1-.4,1.6-.7,2.1-1,.7-.5,1-1.1,1.2-1.8,0-.8,0-1.6-.4-2.1-.4-.6-1.1-1-1.9-1.1-1.2-.2-2.2,0-2.8,1-.3.5-.6,1.1-.8,2l-1.9-.3c.2-1.3.6-2.3,1.2-3,1-1.3,2.6-1.7,4.6-1.4,1.7.3,2.8.9,3.4,2,.6,1,.8,2.1.6,3.2-.2,1.2-.8,2.1-1.7,2.8-.6.4-1.5.8-2.8,1.3l-1.5.5c-.7.3-1.3.5-1.7.8-.8.5-1.3,1.1-1.6,1.7l7.9,1.4-.3,1.7-10-1.7c.1-1.3.6-2.3,1.2-3.1"/>
  <path class="st0" d="M961.5,38.8c.5-.4.8-.9,1-1.5,0-.5,0-1.1-.4-1.6s-1-.9-1.9-1-1.5,0-2,.4-.8.9-.9,1.5c0,.7,0,1.3.5,1.7.4.5,1,.8,1.7.9.8,0,1.5,0,2-.4M960.7,46c.6-.4,1-1,1.2-1.9s0-1.7-.5-2.3-1.2-1-2.1-1.1c-.9-.2-1.6,0-2.3.4-.6.4-1,1-1.2,1.9,0,.8,0,1.5.4,2.1s1.1,1,2.2,1.2c.9.2,1.6,0,2.3-.3M955.9,38.5c-.4-.6-.6-1.4-.4-2.2.2-1.1.7-1.9,1.6-2.6.9-.6,2.1-.8,3.5-.6s2.4.8,3.1,1.7.9,1.8.8,2.8c-.2.9-.5,1.6-1.1,2.1-.3.3-.8.5-1.4.7.6.4,1,.8,1.3,1.2.5.8.7,1.7.5,2.8-.2,1.3-.8,2.3-1.8,3s-2.3,1-3.9.7c-1.4-.2-2.5-.8-3.4-1.8-.8-.9-1.1-2.1-.9-3.6.2-.9.5-1.6,1-2.1.5-.6,1.2-.9,2.1-1.1-.4-.4-.8-.7-1-1"/>
  <path class="st0" d="M974.1,41c.5-.4.8-.9,1-1.5.1-.5,0-1.1-.4-1.6-.3-.5-1-.9-1.9-1-.9-.2-1.5,0-2,.4s-.8.9-.9,1.5c-.1.7,0,1.3.5,1.7.4.5,1,.8,1.7.9.8,0,1.5-.1,2-.4M973.2,48.2c.6-.4,1-1,1.2-1.9s0-1.7-.5-2.3-1.2-1-2.1-1.1c-.9,0-1.6,0-2.3.4-.6.4-1,1-1.2,1.9,0,.8,0,1.5.4,2.1s1.1,1,2.2,1.2c1,.2,1.7,0,2.3-.3M968.5,40.6c-.4-.6-.6-1.4-.4-2.2.2-1.1.7-1.9,1.7-2.6.9-.6,2.1-.8,3.5-.6s2.4.8,3.1,1.7c.7.9.9,1.8.7,2.8-.2.9-.5,1.6-1.1,2.1-.3.3-.8.5-1.4.7.6.4,1,.8,1.3,1.2.5.8.7,1.7.5,2.8-.2,1.3-.8,2.3-1.8,3s-2.3,1-3.9.7c-1.4-.2-2.5-.8-3.4-1.8-.8-.9-1.1-2.1-.9-3.6,0-.9.5-1.6,1-2.1.5-.6,1.2-.9,2.1-1.1-.4-.3-.8-.6-1-1"/>
  <path class="st0" d="M980.8,47.7c-.1,1.1.3,1.9,1.1,2.4.4.3.9.5,1.5.6,1.1.2,1.9,0,2.6-.6.6-.6,1-1.3,1.2-2.2.2-1,0-1.8-.5-2.5s-1.2-1.1-2.1-1.2c-.6,0-1.2,0-1.7,0-.5.2-.9.4-1.3.8l-1.6-.4,2.4-7.6,7.5,1.3-.3,1.8-6.2-1.1-1.3,3.9c.4-.2.7-.3,1.1-.4.6,0,1.2,0,1.9,0,1.3.2,2.4.9,3.2,1.9s1.1,2.2.8,3.5c-.2,1.4-.9,2.5-1.9,3.4s-2.5,1.2-4.3.9c-1.2-.2-2.2-.7-3-1.5s-1.1-1.9-1-3.3l1.9.2Z"/>
</svg>